# xmcd
#
# Track frame offsets: 
#        150
#        19046
#        34661
#        53702
#        67229
#        85162
#        103891
#        118944
#        135172
#        149717
#        164794
#        182281
#        199035
#        215201
#        232060
#        251195
#        268263
#        284797
#
# Disc length: 4007 seconds
#
# Revision: 0
# Processed by: cddbd v1.5.2PL0 Copyright (c) Steve Scherf et al.
# Submitted via: ExactAudioCopy v1.0b1
#
DISCID=270fa512
DTITLE=Various Artist - ブルース歌謡紀行
DYEAR=1900
DGENRE=Vocal
TTITLE0=港町ブルース
TTITLE1=稚内ブルース
TTITLE2=旭川ブルース
TTITLE3=函館ブルース
TTITLE4=新潟ブルース
TTITLE5=前橋ブルース
TTITLE6=新宿ブルース
TTITLE7=東京ブルース
TTITLE8=中の島ブルース
TTITLE9=伊勢佐木町ブルース
TTITLE10=湯本ブルース
TTITLE11=城ケ崎ブルース
TTITLE12=柳ケ瀬ブルース
TTITLE13=宗右衛門町ブルース
TTITLE14=庄内ブルース
TTITLE15=西大寺ブルース
TTITLE16=長崎ブルース
TTITLE17=島のブルース
EXTD=
EXTT0=
EXTT1=
EXTT2=
EXTT3=
EXTT4=
EXTT5=
EXTT6=
EXTT7=
EXTT8=
EXTT9=
EXTT10=
EXTT11=
EXTT12=
EXTT13=
EXTT14=
EXTT15=
EXTT16=
EXTT17=
PLAYORDER=
